<?xml version="1.0" encoding="UTF-8" standalone="no"?>
<svg width="146px" height="147px" viewBox="0 0 146 147" version="1.1" xmlns="http://www.w3.org/2000/svg" xmlns:xlink="http://www.w3.org/1999/xlink" xmlns:sketch="http://www.bohemiancoding.com/sketch/ns">
    <!-- Generator: Sketch 3.4 (15575) - http://www.bohemiancoding.com/sketch -->
    <title>cultguy</title>
    <desc>Created with Sketch.</desc>
    <defs>
        <path id="path-1" d="M0,0.257762791 L145.845131,0.257762791 L145.845131,147 L0,147 L0,0.257762791 Z"></path>
        <path id="path-3" d="M0,0.257762791 L145.845131,0.257762791 L145.845131,147 L0,147 L0,0.257762791 Z"></path>
    </defs>
    <g id="Page-1" stroke="none" stroke-width="1" fill="none" fill-rule="evenodd" sketch:type="MSPage">
        <g id="Artboard-1" sketch:type="MSArtboardGroup" transform="translate(-31.000000, -331.000000)">
            <g id="cultguy" sketch:type="MSLayerGroup" transform="translate(31.000000, 331.000000)">
                <path d="M63.5365393,64.0420884 L63.659343,36.5551395 L53.2346701,42.6436744 L54.0342589,65.6980605 L63.5365393,64.0420884 Z" id="Fill-1" fill="#72CBCC" sketch:type="MSShapeGroup"></path>
                <path d="M60.8508897,32.1622326 L63.6590019,36.5551395 L57.3885065,48.9489488 L59.2087308,63.1197488 L54.0346,65.6980605 L49.9036187,50.379293 L54.447357,28.4359535 L60.8508897,32.1622326 Z" id="Fill-2" fill="#76BBBF" sketch:type="MSShapeGroup"></path>
                <path d="M68.080414,86.9166558 L62.7104794,63.0062512 L58.5371991,61.8042698 L55.8450682,65.4943116 L62.8326009,85.3543535 L68.080414,86.9166558 Z" id="Fill-3" fill="#F1C094" sketch:type="MSShapeGroup"></path>
                <path d="M58.5369944,61.8046116 L65.563415,84.8152395 L63.1325832,86.6079558 L55.2745084,65.0769 L58.5369944,61.8046116 Z" id="Fill-4" fill="#DEB18A" sketch:type="MSShapeGroup"></path>
                <path d="M51.9976953,22.4860088 L52.319714,29.7874647 L46.3726019,32.1968972 L42.9995925,22.3889205 L51.9976953,22.4860088 Z" id="Fill-5" fill="#DB9B81" sketch:type="MSShapeGroup"></path>
                <path d="M41.0878112,69.1599447 L44.8278673,69.7670888 L58.6255495,32.561047 L52.4028112,26.5080656 L46.4352318,32.0557772 L43.2382411,22.0228563 L35.000157,21.2618749 L18.8521477,56.0598516 L22.2838299,60.5854005 L41.0878112,69.1599447 Z" id="Fill-6" fill="#76BBBF" sketch:type="MSShapeGroup"></path>
                <path d="M18.9377009,58.905293 L42.7561682,58.905293 L42.7561682,55.7813721 L18.9377009,55.7813721 L18.9377009,58.905293 Z" id="Fill-7" fill="#D1D2D4" sketch:type="MSShapeGroup"></path>
                <g id="Group-116">
                    <path d="M54.4848121,137.7978 L65.2260458,141.317595 C65.2260458,141.317595 68.9449523,142.662474 67.3355411,145.390521 L47.563457,144.940633 C47.563457,144.940633 48.4947187,137.901726 51.2482514,137.176981 L54.4848121,137.7978 Z" id="Fill-8" fill="#404041" sketch:type="MSShapeGroup"></path>
                    <path d="M7.99500093,139.406937 L18.7362346,142.926049 C18.7362346,142.926049 22.4544589,144.271612 20.8450477,146.999658 L1.07364579,146.549086 C1.07364579,146.549086 2.00354299,139.510179 4.7570757,138.786119 L7.99500093,139.406937 Z" id="Fill-10" fill="#404041" sketch:type="MSShapeGroup"></path>
                    <path d="M46.1273355,138.879447 L60.5540458,138.702363 L60.7703168,98.7183628 L44.6345879,101.51273 L46.1273355,138.879447 Z" id="Fill-12" fill="#9A8478" sketch:type="MSShapeGroup"></path>
                    <path d="M23.9011551,57.2282623 L45.9539776,58.0309507 L60.7702486,98.7184995 L52.3022486,102.614341 L44.6352019,101.512867 L23.9011551,57.2282623 Z" id="Fill-14" fill="#9A8478" sketch:type="MSShapeGroup"></path>
                    <g id="Group-18">
                        <mask id="mask-2" sketch:name="Clip 17" fill="white">
                            <use xlink:href="#path-1"></use>
                        </mask>
                        <g id="Clip-17"></g>
                        <path d="M15.8688355,141.096207 L-0.000136448598,139.857988 L13.8569009,102.442727 L32.5510411,108.75689 L15.8688355,141.096207 Z" id="Fill-16" fill="#9A8478" sketch:type="MSShapeGroup" mask="url(#mask-2)"></path>
                    </g>
                    <path d="M25.2296869,103.63247 L32.5508364,108.756959 L15.8686308,141.509926 L6.17873364,139.806093 L25.2296869,103.63247 Z" id="Fill-19" fill="#9A795C" sketch:type="MSShapeGroup"></path>
                    <path d="M38.7985449,60.3597726 L16.2374514,58.7482423 L13.0800308,68.6410005 L13.8564234,102.442796 L20.6099467,108.30707 L32.5512458,108.756959 L38.7985449,60.3597726 Z" id="Fill-21" fill="#9A8478" sketch:type="MSShapeGroup"></path>
                    <path d="M21.9130308,106.582316 L28.8582645,74.3708553 L36.9387505,76.7146507 L32.5512458,108.757232 L24.1903579,109.13533 L16.8903579,110.378334 L21.9130308,106.582316 Z" id="Fill-23" fill="#9A795C" sketch:type="MSShapeGroup"></path>
                    <path d="M54.9179,98.7515916 L60.7224234,98.9861079 L60.4065449,138.68021 L55.0311523,138.74448 L54.9179,98.7515916 Z" id="Fill-25" fill="#9A795C" sketch:type="MSShapeGroup"></path>
                    <path d="M54.2296533,96.6810795 L39.830915,74.2304191 L45.9540458,58.0310191 L60.7478028,98.8204423 L54.9180364,100.544787 L46.1505318,104.271749 L54.2296533,96.6810795 Z" id="Fill-27" fill="#9A795C" sketch:type="MSShapeGroup"></path>
                    <path d="M55.1884093,47.3049419 L49.1137178,43.5772953 C49.1137178,43.5772953 45.3293159,43.7208767 41.6411103,42.0990907 C37.9522224,40.4759372 34.8173159,36.0440581 34.8173159,36.0440581 L28.3162224,34.887886 C28.3162224,34.887886 22.1726243,44.6329605 20.4833907,48.1636953 C17.8035402,53.7667884 16.284185,59.2283512 16.284185,59.2283512 L44.6034093,71.4655884 C44.6034093,71.4655884 48.7978393,64.4649698 49.9412785,62.0288721 C51.0840355,59.5934581 55.1884093,47.3049419 55.1884093,47.3049419" id="Fill-29" fill="#9A8478" sketch:type="MSShapeGroup"></path>
                    <path d="M13.0305682,38.8899781 L29.8635495,34.7801316 L35.8952598,22.5675084 L17.9877458,23.5192479 L8.84773645,34.0765828 L13.0305682,38.8899781 Z" id="Fill-31" fill="#76BBBF" sketch:type="MSShapeGroup"></path>
                    <path d="M39.2130075,21.8109712 L32.3735215,26.9963107 L29.0919327,25.2138502 L16.1143065,30.1345898 L12.5987084,33.027413 L11.4811944,38.579227 L8.53731589,33.7658316 L18.4523533,23.518906 L34.0177271,20.6267665 L39.2130075,21.8109712 Z" id="Fill-33" fill="#72CBCC" sketch:type="MSShapeGroup"></path>
                    <path d="M46.3925234,28.4185186 L46.3884299,32.0340349 L43.7795327,30.2652488 L41.7907944,21.930007 L42.9574299,20.2952302 L46.3925234,28.4185186 Z" id="Fill-35" fill="#72CBCC" sketch:type="MSShapeGroup"></path>
                    <path d="M47.8076318,29.4373995 L46.4349589,32.055367 L48.5526411,31.8564042 L53.0677252,27.3431623 L53.0554449,25.6981298 L52.2299308,25.3925065 L47.8076318,29.4373995 Z" id="Fill-37" fill="#72CBCC" sketch:type="MSShapeGroup"></path>
                    <path d="M33.3779196,38.8966102 L29.1527888,37.037573 L35.5433589,20.6774986 L37.3260598,20.2761544 L40.954228,20.6850195 L41.0906766,21.337973 L33.3779196,38.8966102 Z" id="Fill-39" fill="#716558" sketch:type="MSShapeGroup"></path>
                    <path d="M33.8736374,38.6916307 L30.458329,37.1888121 L37.778114,20.9832586 L40.9573664,21.4495563 L33.8736374,38.6916307 Z" id="Fill-41" fill="#9A8478" sketch:type="MSShapeGroup"></path>
                    <path d="M51.6299664,46.9276647 L47.4048355,45.0686274 L54.1303869,28.2634507 L56.0891065,27.6563065 L59.2062748,28.716074 L59.3434056,29.3697112 L51.6299664,46.9276647 Z" id="Fill-43" fill="#716558" sketch:type="MSShapeGroup"></path>
                    <path d="M52.1262981,46.7220698 L48.711672,45.2199349 L56.3541579,28.3374977 L59.2100271,29.4799953 L52.1262981,46.7220698 Z" id="Fill-45" fill="#9A8478" sketch:type="MSShapeGroup"></path>
                    <path d="M34.3526402,38.1428079 C34.0244813,38.892166 33.1512103,39.2326591 32.4041542,38.9037893 C31.6570981,38.5749195 31.3166589,37.7011242 31.6448178,36.951766 C31.9736589,36.2017242 32.8455654,35.8619149 33.5926215,36.1907847 C34.3403598,36.5196544 34.6807991,37.392766 34.3526402,38.1428079" id="Fill-47" fill="#BDBFC1" sketch:type="MSShapeGroup"></path>
                    <path d="M34.4852682,38.0319767 C34.1919037,38.7020233 33.4100533,39.0069628 32.7407729,38.7129628 C32.072857,38.4182791 31.7685766,37.6361023 32.0619411,36.9653721 C32.3559879,36.2946419 33.1364738,35.990386 33.805072,36.2837023 C34.4743523,36.578386 34.7799972,37.3612465 34.4852682,38.0319767" id="Fill-49" fill="#E6E7E7" sketch:type="MSShapeGroup"></path>
                    <path d="M52.4394477,46.1004307 C52.1112888,46.8504726 51.2380178,47.1902819 50.4902794,46.8614121 C49.7439056,46.533226 49.4034664,45.6594307 49.7316252,44.9093888 C50.0597841,44.159347 50.9323729,43.8195377 51.6787467,44.1490912 C52.4258028,44.4772772 52.7669243,45.3503888 52.4394477,46.1004307" id="Fill-51" fill="#BDBFC1" sketch:type="MSShapeGroup"></path>
                    <path d="M52.5720075,45.9895995 C52.2779607,46.6603298 51.4974748,46.9652693 50.8281944,46.6705856 C50.1595963,46.3765856 49.8546336,45.5944088 50.1479981,44.9229949 C50.4420449,44.2522647 51.2232131,43.9486926 51.8918112,44.2420088 C52.5604093,44.5366926 52.8660542,45.319553 52.5720075,45.9895995" id="Fill-53" fill="#E6E7E7" sketch:type="MSShapeGroup"></path>
                    <path d="M32.6330467,44.5473586 L47.5489252,51.1404795 L45.0321308,57.3555028 C45.0321308,57.3555028 42.8851121,64.2351028 40.9570935,64.5174795 C39.0277103,64.7998563 37.6168318,64.8012237 37.6168318,64.8012237 L30.8769533,61.7778098 C30.3720935,61.3183493 28.7381215,59.3061586 28.3888131,57.8012888 C28.004028,56.1453167 28.4597664,54.0750098 28.4597664,54.0750098 L32.6330467,44.5473586 Z" id="Fill-55" fill="#9A795C" sketch:type="MSShapeGroup"></path>
                    <path d="M32.5611383,44.5453758 C32.5611383,44.5453758 35.0090262,44.4920456 41.1928766,47.4963153 C44.1763252,48.9458037 47.5493346,51.1405479 47.5493346,51.1405479 C47.5493346,51.1405479 37.7018393,47.4867433 32.5611383,44.5453758" id="Fill-57" fill="#716558" sketch:type="MSShapeGroup"></path>
                    <path d="M42.6028682,25.6188181 L45.0944196,28.3133623 L54.178485,30.1477856 L61.1817093,10.1981763 L45.9902047,7.98975767 L43.2025598,20.199646 L42.6028682,25.6188181 Z" id="Fill-59" fill="#DEB18A" sketch:type="MSShapeGroup"></path>
                    <path d="M45.646286,27.4490023 L53.3747346,28.9019093 L58.3899028,14.9369093 C58.3899028,14.9369093 56.4809869,15.8790767 52.1398748,14.7796535 C49.2014542,14.0343977 48.2845196,12.4803 48.2845196,12.4803 L46.3155664,22.5562953 L45.646286,27.4490023 Z" id="Fill-61" fill="#F1C094" sketch:type="MSShapeGroup"></path>
                    <path d="M59.7721953,13.8386484 C59.7721953,13.8386484 60.1058121,13.5145647 60.5519991,9.08610419 C60.5519991,9.08610419 60.6857187,9.83546233 58.2446533,8.14598791 C58.2446533,8.14598791 47.6234944,0.826071628 45.1210271,7.15527628 C45.1210271,7.15527628 40.9825411,16.9297507 43.0961299,21.9086065 L47.201186,10.1075833 C47.201186,10.1075833 53.5419523,16.3766205 59.7721953,13.8386484" id="Fill-63" fill="#5F3812" sketch:type="MSShapeGroup"></path>
                    <path d="M46.9082308,7.98900558 C46.9082308,7.98900558 56.1676327,15.7034288 57.7818196,10.4811684 C57.7818196,10.4811684 58.1243056,11.6537498 59.2752495,8.75750791 C60.0414084,8.97288 60.5517262,9.08569395 60.5517262,9.08569395 C60.1062215,13.5148381 59.7719224,13.8389219 59.7719224,13.8389219 C53.5423617,16.376894 47.2015953,10.1078567 47.2015953,10.1078567 L44.5033243,17.9145823 C44.1594738,17.1064242 45.1521374,15.0826102 45.0927822,14.0857451 L46.9082308,7.98900558 Z" id="Fill-65" fill="#4E2B05" sketch:type="MSShapeGroup"></path>
                    <path d="M45.0126869,7.16505349 C47.514472,0.837216279 58.1363131,8.15371395 58.1363131,8.15371395 C60.576014,9.84660698 61.0378925,9.22852326 61.0378925,9.22852326 C61.0010514,9.6025186 60.9294159,9.92865349 60.8352664,10.2226535 C59.405285,9.83498372 60.6333224,10.5884442 58.9127056,9.39398372 C58.9127056,9.39398372 48.2929112,2.0761186 45.7890794,8.40463953 C45.7890794,8.40463953 42.5968645,15.9467651 43.2545467,21.1553512 L42.9871075,21.9197512 C40.8755654,16.9408953 45.0126869,7.16505349 45.0126869,7.16505349" id="Fill-67" fill="#4E2B05" sketch:type="MSShapeGroup"></path>
                    <path d="M44.7548673,12.911933 C44.7548673,12.911933 42.6235402,10.5907005 41.6752224,13.5047191 C41.6752224,13.5047191 40.0644467,15.8239005 43.1898019,17.6323423 C43.1898019,17.6323423 44.6272879,15.9189377 44.7548673,12.911933" id="Fill-69" fill="#DEB18A" sketch:type="MSShapeGroup"></path>
                    <path d="M44.6502794,13.2250772 C44.6502794,13.2250772 42.8498402,11.3188633 42.060485,13.7002633 C42.060485,13.7002633 40.7116907,15.594854 43.3451486,17.081947 C43.3451486,17.081947 44.5493075,15.683054 44.6502794,13.2250772" id="Fill-71" fill="#F1C094" sketch:type="MSShapeGroup"></path>
                    <path d="M53.1549841,18.6060293 L57.5547692,19.2945363 L57.7389748,18.4870619 L53.3391897,17.7971874 L53.1549841,18.6060293 Z" id="Fill-73" fill="#DEB18A" sketch:type="MSShapeGroup"></path>
                    <path d="M52.0443607,23.7125358 L53.0499869,23.9429498 L54.0290056,17.7956149 L53.0233794,17.5658847 L52.0443607,23.7125358 Z" id="Fill-75" fill="#DEB18A" sketch:type="MSShapeGroup"></path>
                    <path d="M46.2545738,5.52788372 C46.2545738,5.52788372 32.3545551,1.26693488 31.6497981,5.18602326 C31.6497981,5.18602326 41.3512935,14.5919721 68.017443,18.0372419 C68.017443,18.0372419 79.2055458,19.5886047 69.5142841,13.9745721 L61.7101065,10.8089442 C61.7101065,10.8089442 51.9635832,12.5298698 46.2545738,5.52788372" id="Fill-77" fill="#9A8478" sketch:type="MSShapeGroup"></path>
                    <path d="M46.6030636,6.33713581 C46.6030636,6.33713581 34.8016243,2.90554047 34.2217178,4.73654512 C34.2217178,4.73654512 43.2075402,13.2290428 67.1372131,17.1283033 C67.1372131,17.1283033 76.7766243,18.4649777 68.1960542,14.3551312 L60.8530729,11.4752986 C60.8530729,11.4752986 51.9395682,12.6082242 46.6030636,6.33713581" id="Fill-79" fill="#9A795C" sketch:type="MSShapeGroup"></path>
                    <path d="M45.4624215,6.48864837 L49.9092813,0.257899535 L54.9551505,2.32205302 L61.9290383,3.96503442 C61.9290383,3.96503442 63.5657393,3.78042977 62.9141972,6.35190419 L61.8335243,13.3518391 C61.8335243,13.3518391 50.543085,14.9414902 45.4624215,6.48864837" id="Fill-81" fill="#9A8478" sketch:type="MSShapeGroup"></path>
                    <path d="M46.7603206,6.3852014 L50.3045729,1.51915953 L55.0256944,3.05274558 L61.2279654,4.66085721 C61.2279654,4.66085721 62.6668159,4.54735953 62.1626383,6.74688977 L61.3985262,12.7533781 C61.3985262,12.7533781 51.4759841,13.8151967 46.7603206,6.3852014" id="Fill-83" fill="#9A795C" sketch:type="MSShapeGroup"></path>
                    <path d="M52.4900701,1.97704744 C52.4900701,1.97704744 57.8163411,5.1180614 58.2277336,6.39935442 C58.2277336,6.39935442 57.6607897,4.30101488 56.1045935,3.21731721 L52.4900701,1.97704744 Z" id="Fill-85" fill="#9A8478" sketch:type="MSShapeGroup"></path>
                    <path d="M137.661149,119.804043 C137.972934,119.126475 137.918354,118.449592 137.11399,118.080382 L7.34864393,57.9040521 C6.54700841,57.5355265 5.64440093,57.7864521 5.33534486,58.4633358 L4.97034486,59.2571358 C4.66128879,59.9340195 5.06040093,60.7832009 5.86135421,61.153094 L135.628747,121.327373 C136.431064,121.697266 136.987775,121.276094 137.298878,120.597843 L137.661149,119.804043 Z" id="Fill-87" fill="#C3996B" sketch:type="MSShapeGroup"></path>
                    <path d="M135.623766,113.950366 L134.64543,114.154799 L123.755467,137.953757 L138.596299,144.417654 L139.574636,144.157157 L135.623766,113.950366 Z" id="Fill-89" fill="#6C6E70" sketch:type="MSShapeGroup"></path>
                    <g id="Group-93">
                        <mask id="mask-4" sketch:name="Clip 92" fill="white">
                            <use xlink:href="#path-3"></use>
                        </mask>
                        <g id="Clip-92"></g>
                        <path d="M142.186398,117.38832 L135.623903,113.950571 L124.701875,137.739273 L139.574772,144.156678 L145.845267,119.215906 L142.186398,117.38832 Z" id="Fill-91" fill="#939597" sketch:type="MSShapeGroup" mask="url(#mask-4)"></path>
                    </g>
                    <path d="M68.1176645,90.3846935 C68.1176645,90.3846935 68.8374308,89.3262935 69.1041879,87.6108377 L63.1482065,85.3613958 C63.1482065,85.3613958 60.3707953,86.5189353 61.5681318,89.1704051 C61.5681318,89.1704051 63.4436178,92.5500377 68.1176645,90.3846935" id="Fill-94" fill="#DEB18A" sketch:type="MSShapeGroup"></path>
                    <path d="M67.6939916,90.0568493 C67.6939916,90.0568493 67.8672813,89.2090353 68.433543,88.0022679 L63.3385523,86.1610074 C63.3385523,86.1610074 61.717543,87.3951237 62.4223,89.2965516 C62.4223,89.2965516 64.8797393,91.2396865 67.6939916,90.0568493" id="Fill-96" fill="#F1C094" sketch:type="MSShapeGroup"></path>
                    <path d="M70.3569907,86.0226223 L70.9914766,84.9587526 C70.9914766,84.9587526 67.0092243,81.5538223 64.4501308,83.0730502 C64.4501308,83.0730502 65.1316916,85.9802316 70.3569907,86.0226223" id="Fill-98" fill="#F1C094" sketch:type="MSShapeGroup"></path>
                    <path d="M70.6680935,85.4330498 L69.8364393,86.3998312 C64.6118224,86.356073 64.0523832,82.5703102 64.0523832,82.5703102 C64.2004299,82.4848451 66.5705421,84.0649242 66.7206355,84.0068079 C66.8543551,84.7452265 66.7520187,85.385873 70.6680935,85.4330498" id="Fill-100" fill="#DEB18A" sketch:type="MSShapeGroup"></path>
                    <path d="M68.8825271,88.0898526 L69.5900131,88.5793967 C69.5900131,88.5793967 71.9191907,86.6738665 70.9865645,84.8264526 C70.9865645,84.8264526 69.1540598,84.4613456 68.8825271,88.0898526" id="Fill-102" fill="#F1C094" sketch:type="MSShapeGroup"></path>
                    <path d="M69.277,88.3335307 L68.8724299,88.0518377 C69.1439626,84.4246981 70.3160561,85.3367819 70.3160561,85.3367819 C70.3699533,85.4413912 70.4095234,85.5507865 70.4436355,85.6560795 C69.9278598,85.7169307 69.4898598,85.6143726 69.277,88.3335307" id="Fill-104" fill="#DEB18A" sketch:type="MSShapeGroup"></path>
                    <path d="M14.6762065,55.7766544 L17.8077019,59.9227381 L17.1895897,62.4443009 C17.1895897,62.4443009 16.3354215,61.9725335 15.6640944,63.1628916 C14.9934495,64.3532498 15.7152626,65.6988126 15.7152626,65.6988126 L14.8283467,66.1097288 L11.4983187,66.5609847 C11.4983187,66.5609847 9.09682336,64.3347893 8.1150757,63.431594 C6.73421589,62.1660265 11.0521318,57.1270033 12.007272,55.179766 L14.6762065,55.7766544 Z" id="Fill-106" fill="#F1C094" sketch:type="MSShapeGroup"></path>
                    <path d="M15.6129944,57.8839507 L17.0341065,37.3340344 L11.8511065,33.5462205 L9.44210654,34.2648112 L11.1456673,55.9025274 L15.6129944,57.8839507 Z" id="Fill-108" fill="#F1C094" sketch:type="MSShapeGroup"></path>
                    <path d="M11.8699364,33.4422265 L12.5351234,56.1321893 L11.1406187,56.8131753 L9.44183364,34.2647428 L11.8699364,33.4422265 Z" id="Fill-110" fill="#DEB18A" sketch:type="MSShapeGroup"></path>
                    <path d="M140.973779,120.154587 C140.763649,121.131624 140.099826,121.816028 139.487854,121.684754 C138.877929,121.552796 138.551817,120.655754 138.761948,119.678033 C138.970714,118.703731 139.635219,118.019326 140.246508,118.149917 C140.857116,118.281875 141.183228,119.1796 140.973779,120.154587" id="Fill-112" fill="#404041" sketch:type="MSShapeGroup"></path>
                    <path d="M142.223649,120.461714 C142.010789,121.453793 141.120462,122.102644 140.235593,121.91257 C139.349359,121.722495 138.804247,120.763235 139.017789,119.770472 C139.229284,118.779077 140.119611,118.129542 141.00448,118.319616 C141.890714,118.510374 142.436508,119.469635 142.223649,120.461714" id="Fill-114" fill="#6C6E70" sketch:type="MSShapeGroup"></path>
                </g>
            </g>
        </g>
    </g>
</svg>